<svg xmlns="http://www.w3.org/2000/svg" xmlns:xlink="http://www.w3.org/1999/xlink" width="473.111" height="472.958" viewBox="0 0 473.111 472.958"><defs><linearGradient id="a" x1="0.066" y1="0.161" x2="0.859" y2="0.845" gradientUnits="objectBoundingBox"><stop offset="0" stop-color="#975234"/><stop offset="1" stop-color="#77493f"/></linearGradient></defs><g transform="translate(-701 -288)"><g transform="translate(434.069 151.844)"><path d="M392.012,580.982c-14.57-6.846-27.541-16.18-39.8-26.432-26.27-21.966-47.2-48.259-61.986-79.213a233.926,233.926,0,0,1-22.351-81.361,237.546,237.546,0,0,1,17.232-112.821,253.994,253.994,0,0,1,20.351-38.317c.968-1.535,2.261-2.916,2.518-4.828a1.972,1.972,0,0,1,1.372-.588c1.277.385,2.638.37,3.907.753,5.711,1.722,7.5,3.74,6.912,9.75-1.175,11.994.094,23.626,5.071,34.557,10.772,23.664,29.062,37.386,55.1,40.314,20.709,2.328,38.233-5.036,53.335-18.511a70.389,70.389,0,0,0,13.493-17.169,11.512,11.512,0,0,0,1.551-6.7c2.465-6.334,6.069-12.125,8.113-18.711,11.949-38.514-13.553-79.429-53.454-85.573a69.766,69.766,0,0,0-19.871-.308c-2.071.273-4.009.328-5.334-1.677-.433-1.947-.48-2.024,1.386-3.163a236.26,236.26,0,0,1,32.821-16.879,226.852,226.852,0,0,1,56.173-15.488,250.971,250.971,0,0,1,51.7-1.894,235.093,235.093,0,0,1,138.971,57.921c25.06,21.694,44.257,47.757,58.393,77.618a227.45,227.45,0,0,1,20.485,71.182A234.643,234.643,0,0,1,740,376.279,236.274,236.274,0,0,1,663.814,546.45c-3.076,2.866-5.6,7.021-10.5,7.559-3.088-.364-3.764-2.892-4.705-5.21q-14.475-35.634-28.8-71.329-31.719-78.5-63.378-157.025c-2.614-6.527-4.356-7.273-11.021-4.581q-88.233,35.623-176.453,71.282c-7.867,3.2-15.764,6.322-23.652,9.468-7.3,2.911-7.827,4.237-5.256,11.623.909,2.609,2.554,5.2.935,8.131a16.184,16.184,0,0,1-4.259,3.376c-4.873,2.675-5.231,3.779-3.152,9.18,7.284,18.92,15.18,37.594,22.731,56.407q17.733,44.178,35.633,88.289C392.909,576.024,394.439,578.5,392.012,580.982Z" fill="#5270e7"/><path d="M340.4,415.856c-1.125-2.951-2.233-5.91-3.381-8.853-2.593-6.651-1.674-8.886,4.893-11.538q43.043-17.382,86.094-34.739,58.544-23.646,117.076-47.318c8.2-3.313,9.841-2.64,13.145,5.536q46.288,114.54,92.567,229.084c.81,2.005,1.677,3.987,2.518,5.981-.063,2.641-2.372,3.481-4,4.743-37.069,28.821-78.918,45.5-125.777,49.472a234.272,234.272,0,0,1-108.022-15.945c-2.006-.8-4.073-1.422-5.27-3.429-4.468-2.614-5.422-7.5-7.091-11.7-13.071-32.937-26.534-65.715-39.753-98.591q-10.891-27.087-21.769-54.182C340.554,421.7,338.648,419,340.4,415.856Z" fill="#fefefe"/><path d="M378.17,174.152c13.369-2.18,26.507-1.689,39.3,3.237A69.4,69.4,0,0,1,452.735,277.1c-.659,1.139-1.231,2.328-1.844,3.493-4.453,10.819-12.527,18.285-22.523,23.78-36.331,19.971-79.376,7.529-99.078-28.992-6.32-11.715-9.263-24.565-7.677-38.061.532-4.532-.617-7.866-5.154-9.508-7.812-2.4-15.152-5.987-22.718-9.005-5.422-2.162-7.661-5.579-7.013-9.8-1.274-5.161-.1-9.645,4.058-13.025,4.208-3.421,8.786-3.152,13.628-1.129,9.487,3.965,19.07,7.7,28.752,11.582a91.427,91.427,0,0,1,13.413-15.922C355.674,182.245,366.519,177.443,378.17,174.152Z" fill="#fefefe"/><path d="M340.4,415.856q19.246,47.367,38.476,94.74c10.526,26.056,20.918,52.166,31.37,78.253-7.036-.4-12.431-4.607-18.235-7.867-6.981-17.612-13.888-35.255-20.961-52.83q-20.109-49.966-40.365-99.875c-2.139-5.3-1.045-8.061,4.115-10.342C336.619,417.131,338.532,416.543,340.4,415.856Z" fill="#4b68d3"/><path d="M286.728,209.014c1.8,4.227,5.078,6.664,9.309,8.307,7.065,2.743,14,5.813,20.994,8.746,1.041,4.411-3.042,10.461-8.049,11.93l-1.007.013c-6.78-2.583-13.65-4.958-20.31-7.821a11.741,11.741,0,0,1-7.327-10.956C280.294,214.873,281.984,210.781,286.728,209.014Z" fill="#5a78e8"/><path d="M308.982,238l8.049-11.93a22.67,22.67,0,0,1,7.528,3.132c-1.86,12.3-1.5,24.524,3,36.279,9.74,25.43,28.155,41.075,54.959,45.132,26.4,4,48.342-5.361,65.263-26.144,1.045-1.283,2.072-2.579,3.107-3.869-.055,4.6-2.612,8.225-4.911,11.829q-18.486,28.976-52.743,32.687c-39.329,4.257-72.255-26.457-75.459-61.74-.624-6.875.85-13.527.312-20.2C315.359,240.669,311.216,241.008,308.982,238Z" fill="#4b68d3"/><path d="M577.784,220.627q27.951,29.907,55.9,59.817,19.6,20.99,39.141,42.029c1.206,1.3,2.943,2.276,3.144,4.329-.761,4.448-4.264,6.289-7.745,8.159a3.892,3.892,0,0,1-1.471.009,12.745,12.745,0,0,1-5.163-3.784c-13.426-14.93-27.394-29.356-41.01-44.105-16.543-17.92-33.372-35.575-49.791-53.609a9.472,9.472,0,0,1-2.726-4.659C570.49,222.4,572.989,220.3,577.784,220.627Z" fill="#fed77a"/><path d="M687.015,358.155l5.925,14.857c-8.109-2.95-14.152-7.733-21.047-10.7-11.628-5-18.907-14.8-26.99-23.773-5.008-5.559-10.322-10.833-15.39-16.347-16.544-18-33.71-35.43-50.113-53.554-6.245-6.9-13.127-13.193-18.987-20.485-3.579-4.453-4.28-8.769-2.416-13.854,1.275-1.2,2.246-.323,3.23.465,15.79,15.042,29.993,31.587,44.888,47.48,6.142,6.552,12.265,13.126,18.46,19.629,12.275,12.884,24.231,26.066,36.541,38.915,5.911,3.271,12.013,6.193,17.748,9.786C681.843,352.822,686.634,353.121,687.015,358.155Z" fill="#4b68d3"/><path d="M667.919,333.949a27.344,27.344,0,0,1,8.052-7.145c3.767,5.63,5.972,12.012,8.707,18.139-.146,2.4-1.185,3.991-3.779,4.182-5.709-2.667-9.152-7.766-13.063-12.344A2.536,2.536,0,0,1,667.919,333.949Z" fill="#fde8b7"/><path d="M560.51,236.267,558,234.3c-4.753-7.886-4.534-12.339.865-17.557,6.144,1.588,10.414,6.844,9.726,11.971C567.6,233.236,565.1,235.577,560.51,236.267Z" fill="#fe4d4d"/><path d="M567.974,228.976c.053-3.847-3.326-5.352-5.327-7.794-1.233-1.5-2.522-2.96-3.786-4.438,6.66-5.1,11.758-4.057,18.924,3.885a38.139,38.139,0,0,0-8.876,8.229A.541.541,0,0,1,567.974,228.976Z" fill="#fd6363"/><path d="M687.015,358.155c-2.5-2.987-6.473-3.744-9.344-6.17-.382-2.354.883-3.284,3-3.472,3.064-.623,4.475,1.418,5.839,3.587,1.057,1.681,2.4,3.168,3.393,4.894C689.341,358.377,688.014,357.857,687.015,358.155Z" fill="#66625b"/><path d="M689.905,356.994l-9.1-8.074a.506.506,0,0,1,.221-.87l3.647-3.107A56.539,56.539,0,0,1,689.905,356.994Z" fill="#6b6b6e"/><path d="M471.551,540.942c-3.078,6.874-5.434,14.117-9.136,20.754-3.814-.184-6.48-2.555-9.7-3.307-2.031-.474-4.2-.9-5.239,1.4-1.135,2.52.5,4.17,2.628,5.132,4.1,1.85,8.261,3.546,12.414,5.266,3.483,1.442,4.871-.894,5.977-3.489,2.928-6.874,5.8-13.775,8.655-20.586,2.11.194,2.312,1.742,2.775,2.855,2.306,5.533,4.691,11.046,6.677,16.7,2.891,8.228-.479,16.528-8.251,20.1-5.894,2.705-11.937,5.144-18.065,7.263-8.408,2.908-16.26-.433-19.966-8.515-2.773-6.046-5.211-12.268-7.425-18.543-2.286-6.48.11-14.219,6.051-17.475,8.265-4.529,16.69-9.092,26.468-9.562C468.384,538.789,468.392,538.96,471.551,540.942Z" fill="#d0d6dc"/><path d="M419.2,411.392c-3.035,7.124-6.006,14.1-9.014,21.159-3.649-.158-6.309-2.017-9.247-2.965-2.265-.73-4.849-1.528-6.118,1.252-1.318,2.889,1.046,4.19,3.228,5.191,3.475,1.6,7.036,3.006,10.5,4.63s5.655.586,7.114-2.834c2.98-6.983,6.059-13.923,9.763-20.96,3.681,8.343,8.7,16.087,9.487,25.284.55,6.413-2.794,11.348-8.483,14.079a164.837,164.837,0,0,1-19.817,8.161c-6.2,2.034-12.634.5-16.147-4.857-5.435-8.294-9.823-17.4-10.5-27.605-.446-6.735,3.276-11.483,9.074-14.244,5.692-2.712,11.677-4.823,17.588-7.052C410.8,409.059,414.987,408.744,419.2,411.392Z" fill="#d0d6dc"/><path d="M445.433,476.167c-3.032,7.047-6.029,14.014-9.066,21.075-3.9-.376-6.83-2.449-10.084-3.546-2.094-.707-4.064-.952-5,1.523-.827,2.179.054,3.893,2.135,4.957.444.228.877.485,1.338.672,17.185,6.969,14.218,8.7,21.213-7.7,1.618-3.794,3.353-7.538,5.208-11.694,3.075,2.229,3.4,5.42,4.432,8.01,2.26,5.658,5.614,10.973,5.531,17.451-.09,6.973-3.478,11.758-9.5,14.58-5.415,2.539-11.042,4.672-16.686,6.67-9.822,3.477-17.793-.252-21.726-9.97-2.246-5.553-4.665-11.057-6.517-16.742a15.04,15.04,0,0,1,7.256-18.375,114.206,114.206,0,0,1,21.273-8.573C438.584,473.488,442.112,473.445,445.433,476.167Z" fill="#d0d6dc"/><path d="M588.541,497.983c3.117-.121,4.9.535,5.7,2.759s-.23,3.941-1.866,5.248a14.008,14.008,0,0,1-3.5,1.856q-43.7,17.7-87.416,35.349a20.431,20.431,0,0,1-3.293,1.146,4.675,4.675,0,0,1-5.653-2.973,4.077,4.077,0,0,1,2.085-5.505c2.784-1.465,5.756-2.586,8.681-3.77q40.7-16.472,81.413-32.9C586.213,498.584,587.83,498.2,588.541,497.983Z" fill="#d0d6dc"/><path d="M470.993,479.931c-2.41-.044-3.95-.936-4.651-2.856a4.153,4.153,0,0,1,1.21-4.993,18.282,18.282,0,0,1,4.328-2.427q43.974-17.826,87.973-35.588c3.011-1.219,6.13-1.97,7.681,1.7,1.592,3.77-.91,5.922-4.15,7.23q-44.929,18.132-89.88,36.212A21.7,21.7,0,0,1,470.993,479.931Z" fill="#d0d6dc"/><path d="M444.962,415.395c-2.624-.228-4.475-.865-4.9-3.3-.484-2.8.478-4.89,3.222-6.008,8.628-3.517,17.24-7.075,25.879-10.566q30.545-12.344,61.113-24.629a51.771,51.771,0,0,1,5.644-1.989,4.367,4.367,0,0,1,5.647,2.827,4.145,4.145,0,0,1-2.208,5.482c-3.1,1.592-6.333,2.945-9.57,4.251q-40.5,16.348-81.032,32.628C447.384,414.649,445.948,415.061,444.962,415.395Z" fill="#d0d6dc"/><path d="M499.848,405.656c2.581.116,4.353,1.267,4.851,3.664.561,2.7-.994,4.473-3.326,5.465q-8.941,3.8-17.96,7.423c-9.55,3.856-19.142,7.608-28.67,11.517-2.94,1.206-5.746,1.615-7.266-1.639-1.561-3.342.1-5.715,3.4-7.043q23.114-9.3,46.225-18.614A24.436,24.436,0,0,1,499.848,405.656Z" fill="#d0d6dc"/><path d="M478.058,498.949c-2.436-.013-3.942-.93-4.663-2.831a4.2,4.2,0,0,1,1.187-4.99,12.9,12.9,0,0,1,3.44-1.939c14.767-5.994,29.557-11.932,44.325-17.922,3.089-1.253,6.354-2.442,8.132,1.488,1.749,3.867-1.056,5.849-4.187,7.122q-22.836,9.285-45.727,18.438A16.377,16.377,0,0,1,478.058,498.949Z" fill="#d0d6dc"/><path d="M504.69,563.579a5.267,5.267,0,0,1-5.063-2.957c-1.076-2.171-.094-3.947,1.613-5.229a17.545,17.545,0,0,1,3.967-2.028c14.174-5.766,28.345-11.54,42.558-17.209,3.194-1.274,7.164-3.119,8.937,1.491,1.666,4.333-1.885,6.041-5.366,7.424-14.376,5.711-28.715,11.517-43.073,17.272C507.032,562.837,505.754,563.214,504.69,563.579Z" fill="#d0d6dc"/><path d="M567.974,228.976c.313-.029.624-.067.935-.117,8.659,7.321,15.462,16.431,23.468,24.393,5.757,5.724,10.9,12.056,16.461,17.988,11.918,12.725,24.151,25.164,35.813,38.117,7.438,8.261,15.723,15.756,22.434,24.673-.11,4.744-2.235,7.065-7.36,8.04-9.308-8.321-17.279-17.926-25.816-26.983q-35.925-38.113-71.589-76.471a29.483,29.483,0,0,1-1.81-2.35Z" fill="#feca4f"/><path d="M659.725,342.07l7.359-8.04c.279-.027.558-.053.835-.081l13.112,14.1c-.062.293-.135.583-.221.87a7.546,7.546,0,0,0-3.138,3.064A112.849,112.849,0,0,1,659.725,342.07Z" fill="#f1d498"/></g><circle cx="57" cy="57" r="57" transform="translate(770 337)" fill="url(#a)"/></g></svg>